<?xml version="1.0" encoding="utf-8"?>
<!-- Generator: Adobe Illustrator 23.0.1, SVG Export Plug-In . SVG Version: 6.00 Build 0)  -->
<svg version="1.1" id="logo-5" xmlns="http://www.w3.org/2000/svg" xmlns:xlink="http://www.w3.org/1999/xlink" x="0px" y="0px"
	 viewBox="0 0 132 40" style="enable-background:new 0 0 132 40;" xml:space="preserve">
<g id="layer1">
	<path id="path857" d="M20.9,20.1c0,5.4-4.3,9.7-9.7,9.7s-9.7-4.4-9.7-9.7s4.3-9.7,9.7-9.7S20.9,14.7,20.9,20.1 M31.5,20.1
		c0,5.1-2.2,9.1-4.8,9.1s-4.8-4.1-4.8-9.1S24,11,26.7,11S31.5,15.1,31.5,20.1 M35.8,20.1c0,4.5-0.8,8.2-1.7,8.2
		c-0.9,0-1.7-3.7-1.7-8.2s0.8-8.2,1.7-8.2C35.1,11.9,35.8,15.6,35.8,20.1 M62.5,11.2L62.5,11.2l0-0.2H57l-5.1,12l-5.1-12h-5.9v0.2
		l0,0c1,0.2,1.5,0.6,1.5,1.8v14.2c0,1.2-0.5,1.6-1.5,1.8l0,0v0.2h4V29l0,0c-1-0.2-1.5-0.6-1.5-1.8V13.8l6.5,15.4h0.4L57,13.4v14.2
		c-0.1,1-0.6,1.3-1.5,1.5l0,0v0.2h7v-0.2l0,0c-0.9-0.2-1.4-0.5-1.5-1.5L61,13h0C61,11.8,61.5,11.5,62.5,11.2 M65.7,20.7
		c0.1-2.6,1-4.4,2.6-4.4c0.5,0,0.9,0.2,1.2,0.5c0.7,0.6,1,2,0.9,4H65.7z M65.6,21.4h8.2v0c0-2-0.6-3.5-1.7-4.5
		c-0.9-0.9-2.3-1.4-3.8-1.4h0c-0.8,0-1.7,0.2-2.4,0.5c-0.8,0.4-1.4,0.9-2,1.6c-0.9,1.1-1.4,2.6-1.6,4.3c0,0.1,0,0.1,0,0.2
		c0,0.1,0,0.1,0,0.1c0,0.2,0,0.5,0,0.7c0.1,3.8,2.1,6.9,5.8,6.9c3.2,0,5.1-2.3,5.5-5.5l-0.2-0.1c-0.8,1.7-2.3,2.7-4,2.6
		C67.2,26.5,65.4,24.2,65.6,21.4 M83.1,26.6c-0.3,0.6-0.8,1-1.6,1c-0.8,0-1.4-0.5-1.9-1.5c-0.5-1-0.8-2.4-0.8-4.1
		c0-3.5,1.1-5.8,2.8-5.8c0.7,0,1.3,0.4,1.5,1V26.6z M88.5,29.1c-1-0.2-1.5-0.6-1.5-1.9v-17L80.9,12v0.2l0,0c0.8-0.1,1.4,0,1.7,0.4
		c0.3,0.2,0.4,0.6,0.4,1.1V16c-0.6-0.4-1.3-0.6-2.2-0.6c-1.8,0-3.4,0.7-4.5,2.1c-1.2,1.4-1.8,3.3-1.8,5.5c0,4,2,6.6,4.9,6.6
		c1.7,0,3.1-0.9,3.7-2.5v2.1h5.5L88.5,29.1L88.5,29.1z M93.7,12.5c0-1.2-0.9-2.2-2.2-2.2c-1.2,0-2.2,1-2.2,2.2s1,2.2,2.2,2.2
		C92.8,14.7,93.7,13.7,93.7,12.5 M95.2,29.1c-1-0.2-1.5-0.6-1.5-1.9h0V15.5L88.2,17v0.2l0,0c1.2,0.1,1.5,0.5,1.5,1.9v10.1h5.5
		L95.2,29.1L95.2,29.1z M109.2,29.1c-1-0.2-1.5-0.6-1.5-1.9V15.5l-5.2,1.5v0.2l0,0c1,0.1,1.2,0.5,1.2,1.9v7.4c-0.3,0.6-0.9,1-1.7,1
		c-1.2,0-1.8-0.8-1.8-2.3v-9.8L94.8,17v0.2l0,0c1.2,0.1,1.5,0.5,1.5,1.9v6.3c0,0.4,0,0.9,0.1,1.3l0.1,0.4c0.5,1.7,1.7,2.5,3.6,2.5
		c1.6,0,3-1,3.6-2.6v2.2h5.5L109.2,29.1L109.2,29.1z M130.4,29.3v-0.2l0,0c-1.1-0.3-1.5-0.7-1.5-1.7v-8c0-2.5-1.4-4-3.7-4
		c-1.7,0-3.1,1-3.7,2.5c-0.4-1.6-1.7-2.5-3.6-2.5c-1.6,0-2.9,0.9-3.5,2.3v-2.3l-5.5,1.5v0.2l0,0c1.2,0.1,1.5,0.5,1.5,1.9v10.2h5.1
		v-0.2l0,0c-0.9-0.2-1.1-0.6-1.1-1.5v-9.1c0.2-0.5,0.7-1.2,1.6-1.2c1.1,0,1.7,0.8,1.7,2.3v9.7h5.1v-0.2l0,0
		c-0.9-0.2-1.1-0.6-1.1-1.5v-8.1c0-0.3,0-0.6-0.1-0.9c0.2-0.6,0.7-1.3,1.7-1.3c1.2,0,1.7,0.8,1.7,2.3v9.7H130.4z"/>
</g>
</svg>
