<?xml version="1.0" encoding="utf-8"?>
<!-- Generator: Adobe Illustrator 23.0.1, SVG Export Plug-In . SVG Version: 6.00 Build 0)  -->
<svg version="1.1" id="logo-5" xmlns="http://www.w3.org/2000/svg" xmlns:xlink="http://www.w3.org/1999/xlink" x="0px" y="0px"
	 viewBox="0 0 132 40" style="enable-background:new 0 0 132 40;" xml:space="preserve">
<g>
	<path d="M59.7,22c0-1.2,0-2.4,0-3.7c0-0.4-0.1-0.5-0.5-0.5c-1,0-1,0-1-1c0-0.6,0-1.1,0-1.7c0-0.3-0.1-0.4-0.4-0.4
		c-0.3,0-0.5,0-0.8,0c-0.3,0-0.4-0.1-0.4-0.4c0-1.3,0-2.7,0-4c0-0.3,0.1-0.4,0.4-0.4c0.3,0,0.5,0,0.8,0c0.3,0,0.4-0.1,0.4-0.4
		c0-0.7,0-1.5,0-2.2c0-0.4,0.1-0.5,0.5-0.5c1.1,0,1.1,0,1.1-1.1c0-0.9,0-1.8,0-2.7c0-0.3,0.1-0.4,0.4-0.4c3.3,0,6.7,0,10,0
		c0.3,0,0.5,0.1,0.5,0.5c0,1.1,0,2.2,0,3.3c0,0.4,0.1,0.5,0.5,0.5c1.1,0,1.1,0,1.1,1.1c0,0.5,0,1,0,1.6c0,0.3,0.1,0.4,0.4,0.4
		c0.4,0,0.8-0.2,1.1,0.1c0.2,0.3,0.1,0.7,0.1,1.1c0,0.3,0.1,0.5,0.4,0.4c0,0,0,0,0,0c0.3,0,0.8-0.2,1,0.1c0.2,0.3,0.1,0.8,0.1,1.2
		c0,0.2-0.1,0.3-0.3,0.3c-0.3,0-0.6,0-0.8,0c-0.3,0-0.4,0.1-0.4,0.4c0,0.3,0,0.5,0,0.8c0,0.3-0.1,0.4-0.4,0.4c-0.3,0-0.5,0-0.8,0
		c-0.4,0-0.5,0.1-0.5,0.5c0,0.7,0,1.4,0,2.1c0,0.3-0.1,0.5-0.5,0.5c0,0-0.1,0-0.1,0c-1,0-1,0-1,1c0,1.1,0,2.1,0,3.2
		C67,22,63.4,22,59.7,22z M64.4,9.3c0-1,0-2,0-2.9c0-1.1,0.1-0.9-1-0.9c-0.5,0-0.5,0-0.6,0.5c0,0.2,0,0.4,0,0.6
		c0,0.3-0.1,0.5-0.4,0.4c-0.7,0-1.4,0-2.1,0c-0.4,0-0.5,0.1-0.5,0.5c0,0.7,0,1.4,0,2.1c0,0.3-0.1,0.5-0.5,0.5c-0.2,0-0.5,0-0.7,0
		c-0.3,0-0.4,0.1-0.4,0.4c0,1.3,0,2.6,0,3.8c0,0.3,0.1,0.4,0.4,0.4c0.2,0,0.5,0,0.7,0c0.3,0,0.4,0.1,0.4,0.5c0,0.8,0,1.5,0,2.3
		c0,0.3,0.1,0.4,0.4,0.4c0.5,0,1.1,0,1.6,0c1.1,0,1.1,0,1.1,1.1c0,0,0,0,0,0c0,0.3,0.1,0.4,0.4,0.4c1,0,2,0,3.1,0
		c1.1,0,1.1,0,1.1-1.1c0-0.3,0.1-0.5,0.5-0.5c0.7,0,1.4,0,2.1,0c0.5,0,0.5,0,0.5-0.6c0-0.5,0-1,0-1.5c0-1,0-1,1-1c0,0,0.1,0,0.1,0
		c0.3,0,0.4-0.1,0.4-0.4c0-1,0-2,0-3c0-0.4,0.2-0.8-0.1-1.1c-0.2-0.2-0.7-0.1-1-0.1c-0.3,0-0.4-0.1-0.4-0.4c0-0.8,0-1.5,0-2.3
		c0-0.3-0.1-0.4-0.4-0.4c-0.7,0-1.5,0-2.2,0c-0.5,0-0.6,0-0.6-0.5c0-1,0-1-1-1c-0.4,0-0.5,0.1-0.5,0.5c0,2.1,0,4.1,0,6.2
		c0,1.2,0.2,1.1-1.1,1.1c-0.4,0-0.5-0.1-0.5-0.5C64.4,11.6,64.4,10.5,64.4,9.3z"/>
	<g>
		<path d="M25.8,31.9c0,1.7,0,3.3,0,5c0,0.4-0.1,0.5-0.5,0.5c-0.5,0-0.9,0-1.4,0c-0.3,0-0.4-0.1-0.4-0.4c0-1.1,0-2.3,0-3.4
			c0-0.4-0.1-0.5-0.5-0.5c-1.8,0-3.6,0-5.4,0c-0.4,0-0.5,0.1-0.5,0.5c0,1.1,0,2.2,0,3.3c0,0.4-0.1,0.5-0.5,0.5c-0.4,0-0.9,0-1.3,0
			c-0.3,0-0.5-0.1-0.4-0.4c0-0.9,0-1.7,0-2.6c0-2.5,0-4.9,0-7.4c0-0.5,0-0.6,0.6-0.6c3.3,0,6.6,0,9.8,0c0.5,0,0.6,0,0.6,0.6
			C25.8,28.6,25.8,30.2,25.8,31.9z M20.3,30.7C20.3,30.7,20.3,30.7,20.3,30.7c0.9,0,1.9,0,2.8,0c0.3,0,0.4-0.1,0.4-0.4
			c0-0.5,0-0.9,0-1.4c0-0.3-0.1-0.4-0.4-0.4c-1.9,0-3.8,0-5.7,0c-0.3,0-0.4,0.1-0.4,0.4c0,0.4,0,0.8,0,1.2c0,0.4,0.1,0.5,0.5,0.5
			C18.5,30.7,19.4,30.7,20.3,30.7z"/>
		<path d="M72.5,26.4c1.6,0,3.3,0,4.9,0c0.5,0,0.6,0,0.6,0.5c0,1.9,0,3.7,0,5.6c0,0.4-0.1,0.6-0.5,0.5c-0.4,0-0.8,0-1.2,0
			c-0.3,0-0.4,0.1-0.4,0.4c0,0.4,0,0.9,0,1.3c0,0.3,0.1,0.4,0.4,0.4c0.4,0,0.9,0,1.3,0c0.3,0,0.4,0.1,0.4,0.4c0,0.5,0,1,0,1.5
			c0,0.2-0.1,0.3-0.3,0.3c-0.5,0-1,0-1.5,0c-0.3,0-0.3-0.1-0.3-0.4c0-0.4,0-0.9,0-1.3c0-0.4-0.1-0.5-0.5-0.5c-0.4,0-0.9,0-1.3,0
			c-0.3,0-0.4-0.1-0.4-0.4c0-0.5,0-0.9,0-1.4c0-0.3-0.1-0.4-0.4-0.4c-1.2,0-2.3,0-3.5,0c-0.4,0-0.4,0.1-0.4,0.5c0,1.1,0,2.2,0,3.3
			c0,0.5,0,0.6-0.6,0.6c-0.4,0-0.8,0-1.2,0c-0.5,0-0.5,0-0.5-0.5c0-0.3,0-0.6,0-0.9c0-3,0-5.9,0-8.9c0-0.7,0-0.7,0.7-0.7
			C69.3,26.4,70.9,26.4,72.5,26.4z M72.6,30.7c0.9,0,1.9,0,2.8,0c0.3,0,0.4-0.1,0.4-0.4c0-0.4,0-0.9,0-1.3c0-0.3-0.1-0.4-0.4-0.4
			c-1.9,0-3.8,0-5.8,0c-0.3,0-0.4,0.1-0.4,0.4c0,0.4,0,0.8,0,1.2c0,0.4,0.1,0.5,0.5,0.5C70.7,30.7,71.6,30.7,72.6,30.7z"/>
		<path d="M93.2,31.9c0-1.7,0-3.3,0-5c0-0.5,0-0.5,0.5-0.5c3.3,0,6.6,0,9.9,0c0.4,0,0.5,0.1,0.5,0.5c0,3.3,0,6.6,0,9.9
			c0,0.5,0,0.5-0.5,0.5c-3.3,0-6.6,0-9.8,0c-0.5,0-0.5,0-0.5-0.5C93.2,35.2,93.2,33.5,93.2,31.9z M98.7,35.1c0.9,0,1.9,0,2.8,0
			c0.3,0,0.5-0.1,0.5-0.5c0-1.8,0-3.7,0-5.5c0-0.3-0.1-0.5-0.5-0.5c-1.9,0-3.7,0-5.6,0c-0.3,0-0.5,0.1-0.5,0.4c0,1.9,0,3.7,0,5.6
			c0,0.4,0.1,0.5,0.5,0.5C96.8,35.1,97.7,35.1,98.7,35.1z"/>
		<path d="M117.2,31.9c0,1.7,0,3.3,0,5c0,0.4-0.1,0.5-0.5,0.5c-3.3,0-6.6,0-9.9,0c-0.4,0-0.5-0.1-0.5-0.5c0-3.3,0-6.6,0-10
			c0-0.4,0.1-0.5,0.5-0.5c3.3,0,6.6,0,9.9,0c0.4,0,0.5,0.1,0.5,0.5C117.2,28.6,117.2,30.2,117.2,31.9z M111.8,28.7
			c-0.9,0-1.9,0-2.8,0c-0.3,0-0.5,0.1-0.5,0.4c0,1.9,0,3.7,0,5.6c0,0.3,0.1,0.4,0.4,0.4c1.9,0,3.8,0,5.6,0c0.3,0,0.4-0.1,0.4-0.5
			c0-1.9,0-3.7,0-5.6c0-0.3-0.1-0.4-0.4-0.4C113.6,28.7,112.7,28.7,111.8,28.7z"/>
		<path d="M59.5,37.4c-1.7,0-3.3,0-5,0c-0.4,0-0.5-0.1-0.5-0.5c0-3.3,0-6.7,0-10c0-0.4,0.2-0.5,0.5-0.5c3.3,0,6.6,0,10,0
			c0.4,0,0.5,0.1,0.5,0.5c0,0.4,0,0.9,0,1.3c0,0.4-0.1,0.5-0.5,0.5c-1.2,0-2.4,0-3.5,0c-1.4,0-2.8,0-4.2,0c-0.4,0-0.5,0.1-0.5,0.5
			c0,0.4,0,0.8,0,1.1c0,0.3,0.1,0.4,0.4,0.4c1.1,0,2.3,0,3.4,0c0.5,0,0.5,0,0.5,0.5c0,0.4,0,0.8,0,1.2c0,0.6,0,0.6-0.6,0.6
			c-1.1,0-2.2,0-3.3,0c-0.4,0-0.5,0.1-0.5,0.5c0,0.4,0,0.8,0,1.2c0,0.3,0.1,0.4,0.4,0.4c1.2,0,2.4,0,3.6,0c1.4,0,2.8,0,4.2,0
			c0.4,0,0.5,0.1,0.5,0.5c0,0.4,0,0.9,0,1.3c0,0.3-0.1,0.4-0.5,0.4C62.8,37.4,61.1,37.4,59.5,37.4z"/>
		<path d="M33.3,37.4c-1.7,0-3.3,0-5,0c-0.4,0-0.5-0.1-0.5-0.5c0-3.3,0-6.6,0-10c0-0.4,0.1-0.5,0.5-0.5c3.3,0,6.7,0,10,0
			c0.3,0,0.5,0.1,0.5,0.5c0,0.4,0,0.9,0,1.3c0,0.4-0.1,0.5-0.5,0.5c-2.4,0-4.9,0-7.3,0c-1,0-0.9-0.1-0.9,0.9c0,1.7,0,3.3,0,5
			c0,0.6,0,0.6,0.6,0.6c2.5,0,5,0,7.5,0c0.6,0,0.6,0,0.6,0.6c0,0.4,0,0.7,0,1.1c0,0.6,0,0.6-0.6,0.6C36.6,37.4,34.9,37.4,33.3,37.4z
			"/>
		<path d="M12.7,31.9c0,1.7,0,3.3,0,5c0,0.4-0.1,0.6-0.5,0.5c-0.4,0-0.8,0-1.2,0c-0.4,0-0.5-0.1-0.5-0.5c0-1.1,0-2.2,0-3.3
			c0-0.4-0.1-0.5-0.5-0.5c-1.8,0-3.7,0-5.5,0C4.1,33,4,33.1,4,33.5c0,1.1,0,2.2,0,3.3c0,0.5,0,0.6-0.6,0.6c-0.4,0-0.8,0-1.2,0
			c-0.3,0-0.5-0.1-0.5-0.4c0-0.9,0-1.7,0-2.6c0-2.4,0-4.8,0-7.3c0-0.7,0-0.7,0.7-0.7c0.3,0,0.7,0,1,0c0.5,0,0.5,0,0.5,0.6
			c0,1.1,0,2.3,0,3.4c0,0.3,0.1,0.4,0.4,0.4c1.8,0,3.7,0,5.5,0c0.5,0,0.5,0,0.5-0.5c0-1.1,0-2.2,0-3.3c0-0.4,0.1-0.5,0.5-0.5
			c0.4,0,0.9,0,1.3,0c0.4,0,0.5,0.1,0.5,0.5C12.7,28.5,12.7,30.2,12.7,31.9z"/>
		<path d="M91.1,31.9c0,1.7,0,3.3,0,5c0,0.4-0.1,0.5-0.5,0.5c-0.4,0-0.8,0-1.2,0c-0.3,0-0.5-0.1-0.5-0.5c0-1.2,0-2.3,0-3.5
			c0-1.4,0-2.9,0-4.3c0-0.4-0.1-0.5-0.5-0.5c-1.9,0-3.7,0-5.6,0c-0.4,0-0.5,0.1-0.5,0.5c0,2.6,0,5.1,0,7.7c0,0.6,0,0.6-0.6,0.6
			c-0.4,0-0.7,0-1.1,0c-0.4,0-0.5-0.1-0.5-0.5c0-1.9,0-3.8,0-5.8c0-1.4,0-2.8,0-4.2c0-0.4,0.1-0.5,0.5-0.5c3.3,0,6.6,0,10,0
			c0.4,0,0.5,0.2,0.5,0.5C91.1,28.6,91.1,30.2,91.1,31.9z"/>
		<path d="M119.4,31.9c0-1.6,0-3.3,0-4.9c0-0.5,0-0.6,0.5-0.6c3.3,0,6.6,0,9.9,0c0.4,0,0.5,0.1,0.5,0.5c0,3.3,0,6.6,0,9.9
			c0,0.4-0.1,0.6-0.5,0.5c-0.4,0-0.8,0-1.1,0c-0.6,0-0.6,0-0.6-0.6c0-2.5,0-5.1,0-7.6c0-0.6,0-0.6-0.6-0.6c-1.8,0-3.6,0-5.4,0
			c-0.4,0-0.5,0.1-0.5,0.5c0,2.5,0,5.1,0,7.6c0,0.6,0,0.6-0.6,0.6c-0.4,0-0.8,0-1.2,0c-0.4,0-0.5-0.1-0.5-0.5
			C119.4,35.2,119.4,33.5,119.4,31.9z"/>
		<path d="M40.9,31.9c0-1.6,0-3.3,0-4.9c0-0.5,0-0.6,0.5-0.6c0.4,0,0.8,0,1.2,0c0.5,0,0.6,0,0.6,0.5c0,1.1,0,2.2,0,3.3
			c0,0.4,0.1,0.5,0.5,0.5c1.1,0,2.2,0,3.3,0c0.3,0,0.5-0.1,0.5-0.5c0-0.4,0-0.9,0-1.3c0-0.3,0.1-0.4,0.4-0.4c0.4,0,0.8,0,1.2,0
			c0.6,0,0.6,0,0.6-0.6c0-0.4,0-0.8,0-1.2c0-0.2,0.1-0.4,0.4-0.4c0.5,0,1,0,1.5,0c0.2,0,0.4,0.1,0.4,0.4c0,0.5,0,1,0,1.5
			c0,0.3-0.1,0.4-0.4,0.4c-0.5,0-0.9,0-1.4,0c-0.3,0-0.4,0.1-0.4,0.4c0,0.4,0,0.9,0,1.3c0,0.3-0.1,0.5-0.5,0.5c-0.4,0-0.9,0-1.3,0
			c-0.3,0-0.4,0.1-0.4,0.4c0,0.4,0,0.9,0,1.3c0,0.3,0.1,0.4,0.4,0.4c0.5,0,0.9,0,1.4,0c0.3,0,0.4,0.1,0.4,0.4c0,0.4,0,0.8,0,1.2
			c0,0.6,0,0.6,0.6,0.6c0.4,0,0.8,0,1.1,0c0.3,0,0.4,0.1,0.4,0.4c0,0.5,0,1,0,1.5c0,0.3-0.1,0.4-0.4,0.4c-0.5,0-1,0-1.5,0
			c-0.3,0-0.4-0.1-0.4-0.4c0-0.5,0-0.9,0-1.4c0-0.3-0.1-0.4-0.4-0.4c-0.5,0-0.9,0-1.4,0c-0.3,0-0.4-0.1-0.4-0.4c0-0.4,0-0.9,0-1.3
			c0-0.3-0.1-0.5-0.4-0.5c-1.1,0-2.3,0-3.4,0c-0.3,0-0.4,0.1-0.4,0.4c0,1.1,0,2.3,0,3.4c0,0.4-0.1,0.5-0.5,0.5c-0.4,0-0.8,0-1.2,0
			c-0.5,0-0.5,0-0.5-0.5c0-1.5,0-3.1,0-4.6C40.9,32.1,40.9,32,40.9,31.9z"/>
	</g>
</g>
</svg>
