<?xml version="1.0" encoding="utf-8"?>
<!-- Generator: Adobe Illustrator 23.0.1, SVG Export Plug-In . SVG Version: 6.00 Build 0)  -->
<svg version="1.1" id="logo-5" xmlns="http://www.w3.org/2000/svg" xmlns:xlink="http://www.w3.org/1999/xlink" x="0px" y="0px"
	 viewBox="0 0 132 40" style="enable-background:new 0 0 132 40;" xml:space="preserve">
<g>
	<path d="M66.3,0.6c0.5,0.1,1.1,0.1,1.7,0.2c3,0.7,5.2,2.4,6.6,5c0.7,1.3,1.1,2.6,1.1,4.1c0,0.8,0,1.5-0.3,2.3c-0.4,1-1,1.7-2,2
		c-1.5,0.5-3.1-0.3-3.5-1.9c-0.2-0.4-0.2-1-0.2-1.4c0-0.4,0-0.9,0-1.4c0-0.1,0-0.2-0.1-0.3c-0.1,0.2-0.2,0.3-0.3,0.4
		c-0.7,1.1-1.3,2.2-2,3.3c-0.3,0.4-0.5,0.8-0.9,1.1c-0.8,0.5-1.6,0.4-2-0.5c-0.2-0.4-0.3-0.7-0.3-1.1c0-1,0-1.9,0-2.9
		c0-0.1,0-0.2,0-0.3c-0.2,0.4-0.4,0.7-0.6,1c-1.1,1.8-2.2,3.5-3.3,5.2c-0.1,0.2-0.1,0.4,0.1,0.4c1.3,1.4,3,2.2,4.9,2.4
		c2.3,0.2,4.3-0.5,6-2c0.4-0.4,1-0.4,1.3,0c0.4,0.4,0.4,1-0.1,1.3c-1.6,1.4-3.3,2.3-5.5,2.6c-0.3,0-0.5,0.1-0.8,0.1
		c-0.2,0-0.4,0-0.6,0c-0.1,0-0.2,0-0.3,0c-0.4,0-1-0.1-1.4-0.2c-2.1-0.4-3.9-1.5-5.3-3.1c-1.1-1.2-1.9-2.6-2.2-4.3
		c-0.1-0.5-0.2-1.1-0.3-1.6c0-0.4,0-1,0-1.4c0-0.1,0-0.1,0-0.2c0.1-1.3,0.4-2.6,1.1-3.8c1.5-2.6,3.7-4.2,6.7-4.9
		c0.5-0.1,1.1-0.2,1.7-0.2C66,0.6,66.1,0.6,66.3,0.6z M66.1,11.6c0.1,0,0.1-0.1,0.2-0.2c0.7-1.1,1.4-2.2,2.1-3.3
		c0.3-0.4,0.5-0.7,1-1c0.7-0.4,1.5-0.3,1.9,0.4c0.2,0.4,0.3,0.7,0.3,1.1c0,0.7,0,1.5,0,2.2c0,0.4,0,0.8,0.3,1.1
		c0.3,0.4,0.7,0.6,1.2,0.4c0.4-0.2,0.7-0.6,0.9-1.1c0.1-0.5,0.1-1.1,0-1.7c-0.2-2-1.1-3.9-2.6-5.2c-2.2-1.9-4.8-2.6-7.7-1.7
		c-3.1,1-5.2,3.7-5.5,7c-0.2,1.6,0.1,3,0.7,4.3c0,0.1,0,0.2,0.1,0.2c0.1,0,0.1-0.1,0.2-0.2c1.5-2.4,2.9-4.7,4.4-7.1
		c0.2-0.3,0.3-0.4,0.5-0.6C64.7,5.7,65.7,6,66,6.8c0.1,0.4,0.2,0.7,0.2,1.1c0,1.1,0,2.3,0,3.4C66,11.4,66,11.5,66.1,11.6z"/>
	<g>
		<path d="M129.9,31.5c-0.1,0.9-0.4,1.7-0.9,2.4c-1.4,1.8-3.3,2.2-5.4,1.1c-0.4-0.1-0.4-0.1-0.4,0.3c0,0.9,0,1.8,0,2.7
			c0,0.8-0.5,1.4-1.3,1.4c-0.6,0-1.3-0.5-1.3-1.3c0-0.1,0-0.3,0-0.4c0-3.3,0-6.8,0-10.1c0-0.1,0-0.3,0-0.5c0.1-0.5,0.5-0.9,1-0.9
			c0.4,0,0.8,0.3,1,0.6c0.1,0.3,0.1,0.3,0.4,0.1c2.4-1.9,6-0.8,6.8,2.3c0.1,0.3,0.1,0.5,0.3,0.8C129.9,30.6,129.9,31.1,129.9,31.5z
			 M123.3,30.9c0,0.6,0.1,1.1,0.5,1.5c0.8,1,2.3,1,3.1,0c0.5-0.8,0.5-1.5,0.3-2.4c-0.4-1.3-1.8-1.8-2.9-1.1
			C123.5,29.3,123.3,30.1,123.3,30.9z"/>
		<path d="M49.4,28.7c-0.5,0.5-0.9,1-1.4,1.4c-0.4,0.5-0.9,1-1.3,1.4c-0.5,0.6-1,0.6-1.5,0c-0.8-0.9-1.7-1.8-2.4-2.7
			c-0.1-0.1-0.1-0.3-0.3-0.3c-0.1,0.1-0.1,0.4-0.1,0.5c0,1.5,0,3.1,0,4.6c0,0.3,0,0.5,0,0.6c-0.1,0.6-0.5,1.1-1.1,1.1
			c-0.6,0-1.1-0.4-1.4-1c0-0.3,0-0.4,0-0.6c0-3.6,0-7.1,0-10.6c0-0.3,0-0.6,0.4-0.8s0.5,0,0.8,0.3c0.8,0.9,1.5,1.8,2.4,2.7
			c0.8,0.9,1.5,1.8,2.3,2.7c0.3,0.3,0.5,0.3,0.8,0c1.5-1.7,3.1-3.3,4.5-5.1c0.1-0.1,0.3-0.3,0.4-0.4c0.1-0.1,0.4-0.1,0.6-0.1
			c0.3,0.1,0.3,0.3,0.3,0.5v0.1c0,3.6,0,7.1,0,10.7c0,0.4-0.1,0.9-0.4,1.1c-0.4,0.4-0.8,0.5-1.3,0.3c-0.5-0.1-0.8-0.5-0.9-1
			c0-0.3,0-0.5,0-0.8c0-1.5,0-3.1,0-4.5C49.5,28.9,49.5,28.8,49.4,28.7C49.5,28.7,49.5,28.7,49.4,28.7z"/>
		<path d="M103.6,22.3c1.4,0,2.7,0.4,3.7,1.1c0.6,0.5,0.9,1.4,0.3,1.9c-0.4,0.5-1,0.5-1.5,0.3c-1-0.6-2.2-0.9-3.4-0.6
			c-1.5,0.4-2.8,1.8-2.9,3.4c-0.1,1.1,0.1,2.3,0.8,3.3c1.3,1.7,3.4,2,5.2,0.9c0.3-0.1,0.5-0.4,0.8-0.5c0.5-0.4,1.3-0.4,1.7,0.1
			c0.4,0.5,0.3,1.1-0.3,1.7c-1.3,1-2.7,1.7-4.3,1.7c-3.1,0-5.9-2.3-6.4-5.2c-0.6-3.4,1.3-6.8,4.6-7.7c0.3-0.1,0.5-0.1,0.8-0.1
			C103,22.3,103.2,22.3,103.6,22.3z"/>
		<path d="M8.2,22.3c1.4,0,2.7,0.4,3.7,1.1c0.6,0.4,0.9,1.1,0.5,1.8c-0.4,0.6-1.1,0.8-1.7,0.4c-1.3-0.8-2.6-1-4-0.4
			c-1.5,0.6-2.2,1.8-2.3,3.4c-0.1,1.5,0.3,2.8,1.4,3.8c1.3,1.1,3.4,1.1,4.8,0.1c0.1-0.1,0.3-0.3,0.5-0.4c0.5-0.4,1.3-0.4,1.7,0.1
			c0.4,0.5,0.4,1.1-0.1,1.7c-3.1,2.7-7.8,2-10-1.4c-2.4-4-0.3-9.1,4.2-10.1C7.4,22.3,7.8,22.3,8.2,22.3z"/>
		<path d="M116.4,34.3c-0.6,0.8-1.4,1-2.3,1.3c-1.8,0.3-3.2-0.4-4.2-1.9c-1.3-1.9-1-4.7,0.6-6.3c1.5-1.5,4-1.5,5.6-0.1
			c0.1,0.1,0.1,0.1,0.3,0.3c0.1-0.1,0.1-0.1,0.1-0.3c0.1-0.5,0.5-0.9,1-0.9s0.9,0.5,1,1v0.1c0,2.3,0,4.6,0,7c0,0.8-0.6,1.3-1.3,1
			C116.6,35.3,116.4,34.8,116.4,34.3z M115.7,30.7c0-0.3-0.1-0.6-0.3-1c-0.4-0.6-1-1-1.8-1s-1.4,0.4-1.8,1.1
			c-0.4,0.9-0.3,1.8,0.3,2.6c0.8,1.1,2,1.1,2.9,0.3C115.6,32.1,115.7,31.5,115.7,30.7z"/>
		<path d="M60.8,34.3c-1.1,1.3-3.6,1.7-5,0.8c-1.1-0.8-1.9-1.8-2-3.2c-0.4-1.9,0.1-3.7,1.8-4.8c1.5-1.1,3.7-1,5.1,0.3
			c0.1,0.1,0.1,0.3,0.3,0.1c0.1,0,0.1-0.1,0.1-0.3c0.1-0.5,0.5-0.9,1-0.9s0.9,0.5,1,1v0.1c0,2.3,0,4.6,0,6.9c0,0.8-0.5,1.1-1.3,1.1
			C61.1,35.3,60.9,34.9,60.8,34.3z M60.3,30.9c0-0.3-0.1-0.6-0.3-1c-0.4-0.8-1.1-1.1-1.9-1.1c-0.9,0.1-1.4,0.5-1.7,1.4
			c-0.3,0.8-0.3,1.5,0.3,2.3c0.6,1.1,2.2,1.3,3.1,0.3C60.1,32,60.3,31.5,60.3,30.9z"/>
		<path d="M74.5,30.1c0.8-0.9,1.5-1.7,2.2-2.4c0.4-0.4,0.6-0.8,1-1.1c0.5-0.4,1.1-0.4,1.7,0.1c0.5,0.5,0.5,1.1,0,1.7
			c-0.6,0.6-1.3,1.4-1.9,2c-0.1,0.1-0.1,0.3,0,0.5c0.6,0.8,1.3,1.7,2,2.4c0.5,0.6,0.5,1.3-0.1,1.8c-0.6,0.5-1.3,0.4-1.8-0.1
			c-0.6-0.6-1.1-1.3-1.8-2c-0.4-0.5-0.9-1-1.3-1.4c-0.1,0.1,0,0.3,0,0.3c0,0.8,0,1.5,0,2.3s-0.5,1.4-1.3,1.4S72,34.8,72,34
			c0-2.4,0-5,0-7.4c0-0.9,0-1.9,0-2.8s0.9-1.5,1.7-1.3c0.5,0.1,0.9,0.6,0.9,1.3c0,1.9,0,4,0,5.9C74.5,29.8,74.5,29.8,74.5,30.1z"/>
		<path d="M85.5,31.7c-0.8,0-1.5,0-2.3,0c-0.4,0-0.4,0.1-0.4,0.4c0.1,0.5,0.5,0.9,1,1c0.9,0.4,1.9,0.3,2.8-0.1
			c0.8-0.4,1.4,0,1.7,0.8c0.1,0.5-0.1,0.8-0.4,1c-0.5,0.4-1.1,0.6-1.8,0.8c-1,0.1-1.9,0.1-2.9-0.1c-1.4-0.4-2.3-1.3-2.7-2.7
			c-0.4-1.3-0.4-2.7,0.1-4c0.6-1.5,1.8-2.4,3.4-2.6c0.9-0.1,1.7,0,2.6,0.4c1.5,0.6,2.2,1.8,2.4,3.3c0,0.1,0,0.3,0,0.5
			c0.1,0.8-0.4,1.3-1.1,1.3C87,31.7,86.3,31.7,85.5,31.7z M84.6,30c0.4,0,0.8,0,1.3,0c0.1,0,0.4,0.1,0.5-0.1
			c0.1-0.3-0.1-0.4-0.3-0.6c-0.1-0.1-0.3-0.3-0.4-0.4c-0.8-0.4-1.5-0.4-2.2,0c-0.3,0.1-0.5,0.4-0.6,0.6c-0.1,0.3,0,0.4,0.3,0.4
			C83.7,30,84.1,30,84.6,30z"/>
		<path d="M18.4,26.1c2.6,0,4.6,2,4.6,4.6s-2,4.7-4.6,4.8c-2.6,0-4.7-2.2-4.7-4.7S15.9,26.1,18.4,26.1z M20.3,30.9
			c0-0.1,0-0.3,0-0.4c-0.1-0.9-0.6-1.5-1.4-1.8c-0.8-0.3-1.7,0-2.2,0.6c-0.8,1-0.5,2.8,0.5,3.4c0.8,0.5,1.8,0.5,2.4-0.3
			C20.2,32.1,20.3,31.5,20.3,30.9z"/>
		<path d="M29.3,30.7c0-1,0-2,0-3.1c0-0.1,0-0.4,0-0.5c0.1-0.4,0.4-0.8,0.9-0.8c0.4,0,0.8,0.1,1,0.5c0.1,0.4,0.3,0.3,0.5,0.1
			c1.3-0.9,2.7-1,4-0.4c1.1,0.5,1.8,1.5,2,2.7c0,0.3,0.1,0.6,0.1,0.9c0,1.3,0,2.6,0,4c0,0.9-0.5,1.4-1.3,1.4s-1.3-0.5-1.3-1.4
			c0-1.3,0-2.6,0-3.7c0-0.3,0-0.5-0.1-0.6c-0.1-0.5-0.5-0.9-1-0.9c-1.3-0.3-2.2,0.4-2.2,1.7c0,1.1,0,2.3,0,3.4c0,0.3,0,0.4,0,0.6
			c-0.1,0.6-0.6,1-1.1,1c-0.6,0-1.1-0.4-1.3-1c0-0.3-0.1-0.4-0.1-0.6C29.3,32.8,29.3,31.7,29.3,30.7z"/>
		<path d="M91.3,30.3c0-0.5,0-0.9,0-1.4c0-0.3-0.1-0.4-0.4-0.4c-0.5,0-0.9-0.1-1.1-0.5c-0.3-0.4-0.4-0.8-0.1-1.3
			c0.3-0.4,0.5-0.6,1-0.6c0.6,0,0.6,0.1,0.6-0.6c0-0.6,0-1.3,0-1.9c0.1-0.6,0.6-1.1,1.3-1.1c0.6,0,1.1,0.5,1.3,1.1
			c0.1,0.8,0,1.4,0,2.2c0,0.4,0.1,0.5,0.4,0.4c0.1,0,0.4,0,0.5,0c0.6,0,1.3,0.5,1.3,1.1c0,0.6-0.5,1.1-1.1,1.3c-0.3,0-0.5,0-0.8,0
			c-0.1,0-0.3,0.1-0.3,0.3c0,1.1,0,2.4,0,3.6c0,0.6,0.3,0.8,0.9,0.8c0.9,0,1.4,0.4,1.4,1.1c0,0.6-0.5,1.1-1,1.1
			c-0.6,0-1.3,0-1.9-0.1c-0.8-0.3-1.3-0.6-1.7-1.4c-0.4-0.8-0.4-1.7-0.4-2.6C91.1,31.1,91.3,30.7,91.3,30.3z"/>
		<path d="M65.1,30.7c0-1.1,0-2.2,0-3.3c0-0.8,0.6-1.3,1.3-1c0.4,0.1,0.5,0.4,0.6,0.6s0.1,0.3,0.3,0.1c0.8-0.6,1.5-0.9,2.6-0.9
			c0.6,0,1.1,0.5,1.1,1.1s-0.5,1.1-1.1,1.1c-0.1,0-0.4,0-0.5,0c-1,0.1-1.5,0.8-1.7,1.8c0,1.3,0,2.4,0,3.7c0,0.5-0.3,1-0.8,1.3
			s-0.9,0.1-1.4-0.3c-0.3-0.3-0.5-0.6-0.5-1C65.1,32.9,65.1,31.9,65.1,30.7z"/>
		<path d="M24.5,30.9c0-1,0-2.2,0-3.2c0-0.8,0.5-1.4,1.3-1.4c0.6,0,1.3,0.5,1.3,1.3c0,2.2,0,4.3,0,6.5c0,0.8-0.6,1.3-1.3,1.3
			c-0.8,0-1.3-0.6-1.3-1.4C24.5,33,24.5,31.9,24.5,30.9z"/>
		<path d="M25.8,22.3c0.9,0,1.5,0.6,1.5,1.5c0,0.8-0.6,1.5-1.5,1.5c-0.8,0-1.5-0.8-1.5-1.5C24.3,22.9,24.9,22.3,25.8,22.3z"/>
	</g>
</g>
</svg>
