<?xml version="1.0" encoding="utf-8"?>
<!-- Generator: Adobe Illustrator 23.0.1, SVG Export Plug-In . SVG Version: 6.00 Build 0)  -->
<svg version="1.1" id="logo-5" xmlns="http://www.w3.org/2000/svg" xmlns:xlink="http://www.w3.org/1999/xlink" x="0px" y="0px"
	 viewBox="0 0 132 40" style="enable-background:new 0 0 132 40;" xml:space="preserve">
<path d="M67.3,16.3c-0.9,0.7-1.8,1.2-2.8,1.4c-2.5,0.6-4.9,0.4-7-1.3c-0.9-0.7-1.4-1.7-1.4-2.9c0-2.2,0.1-4.5,0-6.7
	c0-1.5,0.6-2.6,1.8-3.4c2.5-1.8,6.6-1.8,8.9,0.2c0.8,0.7,1.6,0.8,2.5,0.8c1.9,0,3.7,0,5.6,0c0.7,0,0.7,0.1,0.6,0.7
	c-0.2,1-0.5,2-0.7,3c-0.1,0.4-0.3,0.6-0.8,0.6c-0.9,0-1.9,0-2.8,0c-0.5,0-0.7,0.2-0.8,0.6c-0.1,0.3-0.2,0.7-0.4,1
	c0,0.1-0.2,0.3,0,0.4c0.1,0.1,0.3,0,0.4,0c1-0.4,2-0.8,2.9-1.2c0.2-0.1,0.4-0.3,0.8-0.2c-0.3,0.4-0.5,0.8-0.8,1.2
	c-2.1,3-4.1,6.1-6.2,9.1c0,0.1-0.1,0.2-0.1,0.2c-0.1,0.2-0.2,0.5-0.5,0.4s0-0.4,0-0.6C66.8,18.6,67,17.5,67.3,16.3z M68.8,12.2
	c-0.1-0.2-0.1-0.3-0.1-0.4c0.5-1.1,0.9-2.2,1.4-3.3c0.1-0.3,0.4-0.4,0.7-0.4c0.9,0,1.8,0,2.7,0c0.4,0,0.7-0.2,0.7-0.6
	c0.1-0.6,0.2-1.1,0.4-1.7c0.1-0.5,0-0.7-0.5-0.7c-3.3,0-6.6,0-9.9,0c-0.4,0-0.7,0.2-0.7,0.6c-0.1,0.6-0.3,1.2-0.4,1.8
	C63,7.9,63.1,8,63.5,8c0.8,0,1.7,0,2.5,0s0.8,0,0.6,0.7c-0.5,2.3-1,4.5-1.5,6.8c0,0.1-0.1,0.3,0,0.4c0.2,0.2,0.3,0,0.5-0.1
	c0.7-0.3,1.4-0.6,2-0.9c0.4-0.2,0.6-0.2,0.5,0.4c-0.1,0.5-0.3,1-0.2,1.7c1.4-2.2,2.8-4.3,4.1-6.3l-0.1-0.1
	C71,11.3,69.9,11.7,68.8,12.2z M66.6,4.5c-0.1-0.3-0.3-0.4-0.5-0.5c-2.5-1.4-5.1-1.4-7.6,0c-1,0.6-1.8,1.4-1.7,2.7
	c0.1,1.1,0.8,1.8,1.6,2.3c2.3,1.4,4.7,1.4,7.1,0.3c0.1-0.1,0.3-0.1,0.2-0.3c0-0.2-0.2-0.2-0.5-0.2c-0.8,0-1.6,0-2.4,0
	c-0.4,0-0.6-0.1-0.5-0.6c0.3-1,0.5-2,0.7-3c0.1-0.6,0.4-0.8,1-0.8C64.9,4.5,65.7,4.5,66.6,4.5z M56.9,8.7c0,0.9,0.2,1.5,0.8,2.1
	c1.9,1.8,4.3,1.8,6.7,1.4c0.8-0.1,1.2-0.5,1.3-1.3c0-0.2,0.2-0.5,0-0.6s-0.4,0.1-0.6,0.1C62.1,11.3,59.4,10.9,56.9,8.7z M62.3,14.9
	c0.5,0,0.9-0.1,1.4-0.2c1.1-0.2,1.1-0.2,1.3-1.3c0.1-0.6,0-0.7-0.6-0.5c-2.6,0.6-5.1,0.3-7.2-1.5c-0.1-0.1-0.2-0.1-0.3-0.1
	c-0.2,0-0.1,0.2-0.1,0.3c0.1,0.8,0.5,1.4,1.2,1.9C59.3,14.5,60.8,14.8,62.3,14.9z M56.9,13.4c-0.1,1.1,0.3,1.8,1,2.4
	c1.5,1.3,3.3,1.6,5.3,1.4c0.9-0.1,1-0.1,1.2-1c0.2-0.8,0.2-0.8-0.7-0.7c-1.4,0.2-2.8,0.1-4.2-0.4C58.5,14.8,57.7,14.2,56.9,13.4z"/>
<g>
	<path d="M36,32.3c0-1.7,0-3.5,0-5.2c0-0.4-0.2-0.9,0.3-1c0.6-0.1,1.2-0.2,1.7,0.1c0.2,0.1,0.3,0.4,0.3,0.7c0,2.9,0,5.9,0,8.8
		c0,0.6-0.3,0.8-0.9,0.9c-1.1,0.2-1.7-0.4-2.2-1.3c-0.9-1.7-1.9-3.3-2.9-4.9c-0.2,0.2-0.1,0.4-0.1,0.6c0,1.5,0,3.1,0,4.6
		c0,0.8-0.1,0.9-0.9,0.9c-1.5,0-1.5,0-1.5-1.5c0-2.6,0-5.2,0-7.8c0-1,0.1-1,1.1-1.1c0.9-0.1,1.4,0.3,1.9,1.1c1,1.8,2.1,3.5,3.1,5.2
		C35.9,32.4,35.9,32.4,36,32.3z"/>
	<path d="M89.8,31.3c0-1.5,0-2.9,0-4.4c0-0.6,0.2-0.9,0.8-0.8c1.5,0.1,2.9-0.1,4.4,0.2c1.8,0.4,2.7,2,2.2,3.8
		c-0.1,0.4-0.4,0.8-0.8,1.1c-0.3,0.2-0.3,0.4,0,0.6c0.9,0.6,1,1.5,1,2.4c0.1,0.6-0.1,1.3,0.3,1.9c0.2,0.3,0,0.4-0.3,0.5
		c-0.5,0-1,0-1.5,0s-0.6-0.5-0.7-0.9c0-0.4-0.1-0.9,0-1.3c0.1-1.3-0.5-1.8-1.9-2c-0.1,0-0.2,0-0.3,0c-0.6-0.1-0.8,0.2-0.8,0.8
		c0,0.9,0,1.8,0,2.7c0,0.5-0.2,0.6-0.6,0.7c-1.7,0.1-1.7,0.1-1.7-1.6C89.8,33.7,89.8,32.5,89.8,31.3z M92.1,29.2
		c0,1.5-0.2,1.3,1.4,1.3c0.1,0,0.2,0,0.3,0c0.9-0.1,1.5-0.9,1.1-1.8C94.6,28,94,28,93.3,28C92.1,28,92.1,28,92.1,29.2z"/>
	<path d="M121.5,31.3c0-1.5,0-2.9,0-4.4c0-0.6,0.2-0.9,0.8-0.8c0.1,0,0.3,0,0.4,0c0.9,0,1,0.1,1,1s0,1.8,0,2.7
		c0,0.5,0.2,0.7,0.7,0.7c0.8,0,1.7,0,2.5,0c0.5,0,0.7-0.2,0.7-0.7c0-1,0-2,0-3c0-0.6,0.2-0.8,0.8-0.8c1.5,0,1.5,0,1.5,1.5
		c0,2.7,0,5.3,0,8c0,0.9-0.1,1-1,1c-0.1,0-0.2,0-0.3,0c-1,0-1,0-1-1c0-0.9,0-1.7,0-2.6c0-0.4-0.2-0.6-0.6-0.6c-0.9,0-1.7,0-2.6,0
		c-0.4,0-0.6,0.2-0.6,0.6c0,0.9,0,1.8,0,2.7c0,0.8-0.2,0.9-0.9,0.9c-1.3,0-1.3,0-1.3-1.3C121.5,33.9,121.5,32.6,121.5,31.3z"/>
	<path d="M84.8,30.9c0.4,0,0.9,0,1.3,0c0.5,0,0.8,0.3,0.8,0.8c0,0.9,0,1.9,0,2.8c0,0.4-0.2,0.8-0.6,1.1c-1.6,1.3-4.1,1.4-5.9,0.4
		c-0.8-0.5-1.3-1.1-1.6-2c-0.6-2-0.6-4,0.2-5.9c0.6-1.4,1.8-2,3.3-2.1c1.2-0.1,2.3,0.1,3.2,0.9c0.6,0.5,1,1.2,1,2
		c0,0.4-0.1,0.6-0.5,0.6c-0.3,0-0.6,0-0.9,0c-0.4,0-0.7-0.1-0.8-0.6c-0.2-0.6-0.5-0.9-1.1-1c-0.7-0.1-1.4,0-1.9,0.7
		c-0.7,1.1-0.7,4.5,0,5.5c0.5,0.7,2.3,1,2.9,0.4c0.5-0.4,0.3-1,0.2-1.6c0-0.5-0.5-0.3-0.8-0.3c-0.1,0-0.3,0-0.4,0
		c-0.5,0-0.9-0.1-0.8-0.7c0-0.7,0.2-0.9,0.8-0.9C83.9,30.9,84.3,30.9,84.8,30.9z"/>
	<path d="M12.7,31.2c0-0.9,0-1.9,0.3-2.8c0.7-1.7,2.3-2.6,4.6-2.5c1.5,0.1,3.3,1.5,3.6,3c0.3,1.6,0.4,3.2,0,4.8
		c-0.5,1.9-2.5,3.1-4.5,2.9c-2.5-0.3-4-1.8-4-4.4C12.7,31.9,12.7,31.5,12.7,31.2z M14.9,31.3c-0.1,0.7,0,1.4,0.2,2.1
		c0.3,0.8,0.9,1.3,1.7,1.4c0.9,0,1.6-0.3,1.9-1.2c0.5-1.2,0.5-2.4,0.3-3.7c-0.1-0.4-0.2-0.9-0.5-1.2c-0.8-1.1-2.4-1.1-3.2,0
		C14.9,29.5,14.8,30.3,14.9,31.3z"/>
	<path d="M104.1,26.1c1.2,0,1.2,0,1.6,1.1c0.8,2.6,1.7,5.1,2.6,7.6c0.1,0.2,0.1,0.5,0.2,0.7c0.3,0.9,0.2,1-0.7,1
		c-1.3,0-1.3,0-1.7-1.2c-0.3-1.1-0.3-1.1-1.5-1c-0.6,0-1.2-0.2-1.7,0.1c-0.6,0.3-0.5,1-0.7,1.5c-0.1,0.3-0.2,0.7-0.6,0.7
		c-0.6,0-1.2,0.2-1.7-0.1c-0.3-0.1-0.2-0.5-0.1-0.8c0.5-1.5,1-3,1.5-4.5c0.5-1.3,0.9-2.7,1.4-4C103,26.1,103,26.1,104.1,26.1z
		 M104.1,29.5c-0.3,0.9-0.5,1.6-0.7,2.3c-0.2,0.6-0.1,0.7,0.5,0.7c0.2,0,0.4,0,0.6,0c0.3,0,0.5-0.2,0.4-0.5
		C104.7,31.2,104.4,30.4,104.1,29.5z"/>
	<path d="M69.5,31.3c0-1.4,0-2.9,0-4.3c0-0.8,0.1-0.9,0.8-0.9c1.7,0,3.4,0,5,0c0.7,0,0.9,0.2,0.9,0.9c0,0.8-0.1,1-0.9,1
		c-1,0-1.9,0-2.9,0c-0.5,0-0.7,0.2-0.7,0.7c0,1.8-0.2,1.6,1.6,1.6c0.5,0,1.1,0,1.6,0c0.6,0,0.7,0.4,0.6,0.9c0,0.4,0,0.9-0.6,0.9
		c-0.8,0-1.7,0-2.5,0c-0.5,0-0.7,0.2-0.7,0.7c0.1,2.3-0.3,1.9,1.9,1.9c0.6,0,1.2,0,1.8,0c0.7,0,0.8,0.2,0.8,1c0,0.7-0.2,0.9-0.8,0.9
		c-1.7,0-3.4,0-5.2,0c-0.6,0-0.8-0.2-0.8-0.8C69.5,34.2,69.5,32.8,69.5,31.3z"/>
	<path d="M110.9,31.2c0-1.4,0-2.8,0-4.3c0-0.8,0.1-0.9,0.9-0.9c1.1,0,2.3-0.1,3.4,0c1.4,0.1,2.7,0.5,3.3,1.9c1,2.5-0.3,4.5-3,4.8
		c-0.5,0.1-1,0-1.5,0s-0.7,0.2-0.7,0.7c0,0.8,0,1.5,0,2.3c0,0.5-0.2,0.7-0.7,0.7c-1.6,0-1.6,0.1-1.6-1.5
		C110.9,33.8,110.9,32.5,110.9,31.2z M114.6,28c-0.2,0-0.3,0-0.5,0c-0.8,0-0.9,0-0.9,0.9c0,0.6,0,1.1,0,1.7c0,0.2,0,0.5,0.3,0.5
		c0.7,0,1.4,0.1,2.1-0.2c0.5-0.2,0.7-0.6,0.8-1.1c0-0.6-0.1-1.2-0.6-1.5C115.4,27.9,114.9,28,114.6,28z"/>
	<path d="M50.8,31.3c0-1.4,0-2.8,0-4.3c0-0.9,0.1-1,0.9-1c1.7,0,3.3,0,5,0c0.7,0,0.8,0.2,0.8,1c0,0.7-0.2,0.9-0.8,0.9
		c-1,0-2,0-2.9,0c-0.5,0-0.7,0.2-0.7,0.7c0,1.8-0.1,1.6,1.5,1.6c0.5,0,1,0,1.5,0c0.6,0,0.7,0.3,0.7,0.8s0,1-0.6,1
		c-0.8,0-1.6,0-2.4,0c-0.5,0-0.7,0.2-0.7,0.7c0,2.2-0.3,1.8,1.8,1.9c0.6,0,1.2,0,1.8,0c0.5,0,0.8,0.2,0.7,0.7c0,0.2,0,0.4,0,0.6
		c0,0.4-0.2,0.6-0.6,0.6c-1.8,0-3.6,0-5.3,0c-0.6,0-0.7-0.4-0.7-0.8C50.8,34.2,50.8,32.8,50.8,31.3z"/>
	<path d="M4.4,31.3c0,0.9-0.2,1.7,0.3,2.5c0.4,0.7,1,1,1.8,0.9c0.6,0,1.1-0.3,1.3-0.8c0.1-0.1,0.1-0.3,0.1-0.5
		c0-0.4,0.2-0.5,0.6-0.5c0.1,0,0.1,0,0.2,0c1.7,0,1.9,0.4,1.1,1.9c-0.8,1.4-2.2,1.8-3.7,1.8c-2.5-0.1-4-1.8-4-4.3
		c0-1.2-0.1-2.4,0.2-3.6c0.4-1.5,2-2.7,3.6-2.8c1.3-0.1,2.5,0.2,3.5,1.1c0.6,0.6,0.7,1.3,0.9,2c0,0.1,0,0.2,0,0.2
		c-0.4,0.6-1,0.3-1.5,0.3c-0.3,0-0.6,0.1-0.8-0.4c-0.3-1.2-0.8-1.6-2-1.4c-0.7,0.1-1.4,0.9-1.5,1.8C4.4,30.2,4.4,30.8,4.4,31.3z"/>
	<path d="M45.5,32.3c0,1.1,0,2.3,0,3.4c0,0.6-0.2,0.8-0.8,0.8c-1.5,0-1.5,0-1.5-1.5c0-2.1,0-4.2,0-6.2c0-0.6-0.2-0.9-0.8-0.8
		c-0.4,0-0.8,0-1.2,0c-0.8,0-0.7-0.6-0.7-1.1s0.1-0.8,0.7-0.8c2.2,0,4.4,0,6.6,0c0.4,0,0.6,0.2,0.6,0.6c0,0.2,0,0.4,0,0.6
		c0,0.5-0.2,0.8-0.7,0.7c-0.4,0-0.9,0-1.3,0c-0.8,0-0.9,0.1-0.9,0.9C45.5,30,45.5,31.1,45.5,32.3z"/>
	<path d="M60.2,31.3c0-1.5,0-2.9,0-4.4c0-0.6,0.2-0.8,0.8-0.8c1.5,0,1.5,0,1.5,1.5c0,2.1,0,4.2,0,6.3c0,0.6,0.2,0.8,0.8,0.8
		c0.9,0,1.8,0,2.7,0c0.8,0,0.9,0.2,0.9,0.9c0,0.8-0.1,1-0.9,1c-1.7,0-3.4,0-5.1,0c-0.6,0-0.8-0.2-0.8-0.8
		C60.2,34.3,60.2,32.8,60.2,31.3z"/>
	<path d="M26.6,31.3c0,1.5,0,2.9,0,4.4c0,0.8-0.1,0.9-0.8,0.9c-1.5,0-1.5,0-1.5-1.5c0-2.7,0-5.4,0-8.1c0-0.8,0.1-0.9,0.9-0.9
		c1.4,0,1.4,0,1.4,1.4C26.6,28.7,26.6,30,26.6,31.3z"/>
</g>
</svg>
