<?xml version="1.0" encoding="utf-8"?>
<!-- Generator: Adobe Illustrator 23.0.1, SVG Export Plug-In . SVG Version: 6.00 Build 0)  -->
<svg version="1.1" id="Layer_1" xmlns="http://www.w3.org/2000/svg" xmlns:xlink="http://www.w3.org/1999/xlink" x="0px" y="0px"
	 viewBox="0 0 108.6 25.5" style="enable-background:new 0 0 108.6 25.5;" xml:space="preserve">
<style type="text/css">
	.st0{fill:#2BABC6;}
	.st1{fill:#CECECE;}
</style>
<title>Logo</title>
<path class="st0" d="M24.8,4.1l-4.4,2.8c-1.4,0.9-2.7,1.8-4.1,2.6c-0.7,0.4-0.8,0.7-0.2,1.4c1.4,1.6,2.7,3.3,4.1,4.9
	c0.4,0.3,0.4,0.9,0.1,1.2l0,0c-1.8,2.7-3.6,5.3-5.4,8c-0.4,0.6-0.7,0.7-1.1,0c-1.8-2.7-3.5-5.3-5.3-7.9c-0.4-0.4-0.4-1,0-1.4l0,0
	c1.4-1.6,2.7-3.2,4-4.8C13,10.3,13,10,12.3,9.5C9.6,7.8,7,6.1,4.3,4.4C4.2,4.3,4,4.1,3.7,4.2C4,4.9,4.3,5.6,4.6,6.3
	c1,2.1,2,4.1,2.9,6.2c0.1,0.2,0.2,0.5,0.3,0.8C8,14,7.5,14.4,7.1,14.6s-0.6-0.4-0.7-0.7c-2-4.2-4.1-8.5-6.1-12.8
	C0.2,0.8,0,0.4,0,0.1c0.4-0.2,0.6,0.2,0.9,0.3c4.2,2.7,8.4,5.3,12.6,8c0.5,0.4,1.2,0.4,1.7,0c4.1-2.7,8.3-5.3,12.5-8
	C28,0.2,28.2-0.1,28.6,0c0.1,0.3-0.1,0.5-0.2,0.8c-2.1,4.4-4.1,8.7-6.2,13.1c-0.1,0.3-0.1,0.9-0.7,0.8c-0.5-0.3-0.8-0.9-0.7-1.5
	c0.4-0.9,0.8-1.8,1.3-2.7L25,4.3L24.8,4.1z M18.6,16.5c-0.1-0.2-0.2-0.3-0.3-0.5c-1.2-1.5-2.4-2.9-3.6-4.4c-0.4-0.5-0.6-0.2-0.9,0.1
	c-1.1,1.4-2.2,2.7-3.3,4.1c-0.4,0.4-0.5,1-0.1,1.4l0,0c1.2,1.7,2.3,3.4,3.5,5.1c0.3,0.5,0.6,0.6,0.9,0c1.2-1.8,2.4-3.6,3.6-5.4
	C18.5,16.8,18.5,16.6,18.6,16.5z"/>
<path class="st1" d="M37.9,20.1l0.8-2c0.5,0.3,1,0.6,1.5,0.8c0.5,0.2,1.1,0.3,1.7,0.3c0.8,0,1.5-0.2,2.1-0.7
	c0.5-0.5,0.8-1.1,0.8-1.8c0-0.5-0.1-1.1-0.4-1.5c-0.6-0.7-1.3-1.2-2.2-1.5L40.9,13c-0.9-0.4-1.7-1-2.3-1.8c-0.5-0.8-0.7-1.7-0.7-2.6
	c0-1.1,0.4-2.2,1.3-3c0.9-0.8,2.1-1.2,3.3-1.2c1.3-0.1,2.6,0.2,3.7,0.9l-0.7,1.9c-0.9-0.6-1.9-0.9-3-0.9c-0.7,0-1.3,0.2-1.8,0.6
	c-0.4,0.4-0.7,1-0.7,1.6c0,0.4,0.1,0.8,0.2,1.1c0.1,0.3,0.4,0.6,0.6,0.9c0.5,0.4,1.1,0.7,1.7,1l1.3,0.6c0.9,0.4,1.7,1,2.3,1.9
	c0.5,0.8,0.7,1.8,0.7,2.8c0,1.2-0.5,2.3-1.5,3.1c-1.1,0.9-2.5,1.3-3.9,1.2C40.3,21.2,39,20.8,37.9,20.1z"/>
<path class="st1" d="M51.8,14.6v6.2h-2.2V4.7c1.7-0.1,2.7-0.1,3-0.1c4.7,0,7,1.6,7,4.7c0,3.6-2.1,5.5-6.2,5.5
	C53.1,14.7,52.6,14.7,51.8,14.6z M51.8,6.6v6c0.9,0.1,1.4,0.1,1.5,0.1c2.7,0,4.1-1.1,4.1-3.2c0-2-1.5-3-4.4-3
	C52.6,6.5,52.1,6.6,51.8,6.6L51.8,6.6z"/>
<path class="st1" d="M71.5,20.9v-7.8h-7.1v7.8h-2.2V4.7h2.2v6.5h7.1V4.7h2.2v16.2C73.7,20.9,71.5,20.9,71.5,20.9z"/>
<path class="st1" d="M77.4,20.9V4.7h2.3v16.2C79.7,20.9,77.4,20.9,77.4,20.9z"/>
<path class="st1" d="M93.8,21.1L85.4,9.2v11.6h-2.1V4.7h0.9l8.2,11.2V4.7h2.1v16.4C94.5,21.1,93.8,21.1,93.8,21.1z"/>
<path class="st1" d="M106.2,20.9l-4-6.5l-3.7,6.5h-2.3l4.8-8.4l-4.4-7.8h2.2l3.5,6.1l3.8-6.1h2.2l-5,7.8l5.3,8.4H106.2z"/>
</svg>
