<svg id="Layer_1" data-name="Layer 1" xmlns="http://www.w3.org/2000/svg" viewBox="0 0 108.55 25.51"><defs><style>.cls-1{fill:#2babc6;}</style></defs><title>Logo</title><path class="cls-1" d="M33.2,8.05,28.83,10.8c-1.36.86-2.7,1.75-4.08,2.58-.67.4-.81.72-.24,1.38,1.4,1.6,2.7,3.28,4.08,4.9a.88.88,0,0,1,.06,1.26q-2.71,4-5.36,8c-.43.64-.69.71-1.14,0-1.75-2.66-3.54-5.3-5.34-7.93a1,1,0,0,1,.05-1.43c1.37-1.59,2.66-3.25,4-4.83.55-.63.46-.95-.23-1.38-2.66-1.64-5.29-3.34-7.93-5-.16-.11-.31-.3-.65-.18.31.69.6,1.37.92,2.05,1,2.05,2,4.1,2.94,6.16.11.24.23.49.32.75.25.68-.27,1.09-.69,1.33s-.57-.37-.71-.67Q11.78,11.42,8.74,5a2.41,2.41,0,0,1-.37-1c.42-.17.65.15.91.31,4.2,2.66,8.41,5.31,12.59,8a1.34,1.34,0,0,0,1.71,0c4.15-2.68,8.33-5.32,12.51-8,.26-.17.5-.45.89-.37.14.3-.06.53-.17.76q-3.11,6.54-6.23,13.06c-.14.31-.13.89-.71.76a1.32,1.32,0,0,1-.66-1.5c.4-.92.84-1.82,1.27-2.73l2.89-6.07ZM27,20.39a5.11,5.11,0,0,0-.28-.46c-1.21-1.47-2.43-2.94-3.63-4.42-.4-.5-.62-.23-.9.11C21.09,17,20,18.33,18.85,19.67a1,1,0,0,0-.09,1.44c1.18,1.68,2.33,3.39,3.46,5.11.34.53.56.61.94,0,1.18-1.8,2.4-3.57,3.59-5.35C26.85,20.75,26.92,20.58,27,20.39Z" transform="translate(-8.37 -3.93)"/><path d="M46.29,24.05l.8-2a5.59,5.59,0,0,0,1.55.75,5.11,5.11,0,0,0,1.65.31,3,3,0,0,0,2.08-.71,2.32,2.32,0,0,0,.78-1.8,2.82,2.82,0,0,0-.43-1.52,5.32,5.32,0,0,0-2.2-1.53l-1.3-.61a5.22,5.22,0,0,1-2.32-1.84,4.75,4.75,0,0,1-.66-2.55,3.94,3.94,0,0,1,1.28-3,4.65,4.65,0,0,1,3.3-1.2,6,6,0,0,1,3.74.88l-.65,1.92a6.31,6.31,0,0,0-3-.92,2.4,2.4,0,0,0-1.78.65,2.2,2.2,0,0,0-.65,1.64,2.6,2.6,0,0,0,.24,1.13,2.36,2.36,0,0,0,.64.85,10.34,10.34,0,0,0,1.7,1l1.33.63a5.28,5.28,0,0,1,2.33,1.87,5.28,5.28,0,0,1,.66,2.77,3.94,3.94,0,0,1-1.46,3.1A5.81,5.81,0,0,1,50,25.07,6.44,6.44,0,0,1,46.29,24.05Z" transform="translate(-8.37 -3.93)"/><path d="M60.12,18.55v6.24H57.91V8.59c1.67-.07,2.68-.11,3-.11q7.05,0,7,4.72c0,3.64-2.07,5.47-6.23,5.47C61.51,18.67,61,18.63,60.12,18.55Zm0-8v6c.94.08,1.43.11,1.48.11q4.12,0,4.12-3.24c0-2-1.47-3-4.39-3A9.54,9.54,0,0,0,60.12,10.58Z" transform="translate(-8.37 -3.93)"/><path d="M79.83,24.79V17H72.75v7.83H70.54V8.59h2.21v6.49h7.08V8.59H82v16.2Z" transform="translate(-8.37 -3.93)"/><path d="M85.74,24.79V8.59H88v16.2Z" transform="translate(-8.37 -3.93)"/><path d="M102.13,25,93.76,13.17V24.79h-2.1V8.59h.89l8.15,11.2V8.59h2.1V25Z" transform="translate(-8.37 -3.93)"/><path d="M114.58,24.79l-4-6.5-3.72,6.5H104.6l4.78-8.4L105,8.58h2.18l3.46,6.13,3.81-6.13h2.23l-5,7.84,5.29,8.36Z" transform="translate(-8.37 -3.93)"/></svg>