<?xml version="1.0" encoding="utf-8"?>
<!-- Generator: Adobe Illustrator 23.0.1, SVG Export Plug-In . SVG Version: 6.00 Build 0)  -->
<svg version="1.1" id="Layer_1" xmlns="http://www.w3.org/2000/svg" xmlns:xlink="http://www.w3.org/1999/xlink" x="0px" y="0px"
	 viewBox="0 0 1286 795.8" style="enable-background:new 0 0 1286 795.8;" xml:space="preserve">
<style type="text/css">
	.st0{fill:url(#SVGID_1_);}
	.st1{fill:#E7F6FF;}
	.st2{fill:none;}
	.st3{fill:#426572;}
	.st4{fill:#FFFFFF;}
	.st5{opacity:4.000000e-02;}
	.st6{fill:#A8A8A8;}
	.st7{fill:#E5E5E5;}
	.st8{fill:#E8EDF7;}
	.st9{fill:#C0CEE2;}
	.st10{fill:#E8837E;}
	.st11{opacity:0.2;fill:#8DA3B2;enable-background:new    ;}
	.st12{fill:#D66765;}
</style>
<title>Asset 13</title>
<g>
	<g id="Layer_1-2">
		
			<linearGradient id="SVGID_1_" gradientUnits="userSpaceOnUse" x1="1.3274" y1="371.3581" x2="1254.6133" y2="371.3581" gradientTransform="matrix(1 0 0 -1 0 795.3858)">
			<stop  offset="0" style="stop-color:#C5E9FA"/>
			<stop  offset="1" style="stop-color:#C4F4EA"/>
		</linearGradient>
		<path class="st0" d="M1218.2,502.3c-45.5,117.7-130.9,220.8-249.6,266.1c-15.4,5.9-31.2,10.9-47.2,15
			c-84.7,21.6-177.3,14.1-255.4-25.3c-33.1-16.7-63.3-38.8-96.6-55.3s-71.2-27.2-107.4-19.1c-31.2,7-57.5,27.1-83.9,44.9
			c-62.4,42.1-137.4,75.5-211.3,61c-34-6.7-67.5-25.1-83.3-55.9c-34.9-68.1,30.9-149,17.6-224.3c-8.5-48.2-47.5-84.3-71.7-126.8
			c-41.5-72.7-36.6-169.3,12-237.5S179.7,40.9,262,56.4c100.3,18.9,176.1,103.8,273.7,133.8c61,18.8,127.2,13.2,185.5-11.6
			c94.1-39.9,223.5-101.2,329.4-91.2c56.3,5.3,111.6,30.3,148.8,73c47,53.9,61.1,130.4,53.2,201.5
			C1247.2,409.9,1235.6,457.1,1218.2,502.3z"/>
		<path class="st1" d="M1248.4,595.4c-2.1,0-4.2-0.3-6.2-0.8c-13.9-3.4-22.4-17.5-19-31.4c3.4-13.9,17.5-22.4,31.4-19
			c13.9,3.4,22.4,17.5,19,31.4C1270.8,587.2,1260.4,595.4,1248.4,595.4z M1248.4,555.2c-7.8,0-14.1,6.4-14,14.1
			c0,6.5,4.4,12.1,10.7,13.6l0,0c7.6,1.8,15.2-2.8,17-10.4c1.8-7.6-2.8-15.2-10.4-17C1250.6,555.3,1249.5,555.2,1248.4,555.2z"/>
		
			<ellipse transform="matrix(0.2357 -0.9718 0.9718 0.2357 324.9627 1653.6212)" class="st1" cx="1213.7" cy="620.2" rx="11.3" ry="11.3"/>
		<path class="st1" d="M55.2,592.9c-14.4-0.3-25.8-12.2-25.5-26.7c0.3-14.4,12.2-25.8,26.7-25.5s25.8,12.2,25.5,26.7
			c-0.3,14-11.6,25.2-25.5,25.5H55.2z M55.2,552.7h-0.6c-7.8,0.2-14,6.6-13.8,14.4c0.2,7.8,6.6,14,14.4,13.8s14-6.6,13.8-14.4
			C68.8,559,62.8,552.9,55.2,552.7L55.2,552.7z"/>
		
			<ellipse transform="matrix(0.9983 -5.822362e-02 5.822362e-02 0.9983 -36.3503 3.1627)" class="st1" cx="36.1" cy="625.4" rx="11.3" ry="11.3"/>
		<path class="st1" d="M709.1,171.1c-14.4,0-26.1-11.6-26.1-26c0-14.4,11.6-26.1,26-26.1c14.4,0,26.1,11.6,26.1,26
			c0,8.5-4.1,16.5-11.1,21.4C719.6,169.5,714.4,171.1,709.1,171.1z M709,130.9c-7.8,0-14.1,6.3-14.2,14.1s6.3,14.1,14.1,14.2
			c7.8,0,14.1-6.3,14.2-14.1c0-6.9-4.9-12.7-11.7-13.9C710.7,131,709.8,130.9,709,130.9z"/>
		
			<ellipse transform="matrix(0.8188 -0.5741 0.5741 0.8188 25.607 401.9172)" class="st1" cx="649.4" cy="160.4" rx="11.3" ry="11.3"/>
		<rect x="713.4" y="158" class="st2" width="44.5" height="44.5"/>
		<rect x="713.4" y="158" class="st2" width="44.5" height="44.5"/>
		<path class="st3" d="M839.7,777"/>
		<path class="st4" d="M1286,305.5c0-22.9-18.5-41.5-41.4-41.5c-0.9,0-1.8,0-2.7,0.1c0.1-0.9,0.1-1.8,0.1-2.7
			c0-22.9-18.6-41.5-41.5-41.5c-22.9,0-41.5,18.6-41.5,41.5c0,3.6,0.5,7.1,1.4,10.5c-18.5-13.4-44.5-9.3-57.9,9.2
			c-13.4,18.5-9.3,44.5,9.2,57.9c4.8,3.5,10.3,5.9,16.1,7.1c8.1,21.4,32,32.2,53.4,24.2c5.8-2.2,11.1-5.7,15.4-10.2
			c18.3,13.8,44.3,10.2,58.1-8.1c1.8-2.4,3.3-5,4.6-7.7C1275.4,338.1,1286,322.7,1286,305.5z"/>
		<path class="st4" d="M191.4,205.8c0-22.9-18.6-41.5-41.4-41.5c-0.9,0-1.8,0-2.7,0.1c0.1-0.9,0.1-1.8,0.1-2.7
			c0-22.9-18.6-41.5-41.5-41.5s-41.5,18.6-41.5,41.5c0,3.6,0.5,7.1,1.4,10.5c-18.5-13.4-44.5-9.3-57.9,9.2s-9.3,44.5,9.2,57.9
			c4.8,3.5,10.3,5.9,16.1,7.1c8.1,21.4,32,32.2,53.4,24.1c5.8-2.2,11.1-5.7,15.4-10.2c18.3,13.8,44.3,10.2,58.1-8.1
			c1.8-2.4,3.3-5,4.6-7.7C180.8,238.5,191.4,223,191.4,205.8z"/>
		<g class="st5">
			<polygon class="st6" points="918.2,555.9 624.5,555.9 335,647.5 335,649.5 39.1,649.5 39.1,747.4 335,747.4 335,745.4 
				624.5,653.8 918.2,653.8 918.2,653.1 1211.9,560.1 1211.9,462.2 918.2,555.2 			"/>
		</g>
		<rect x="154.7" y="172.9" class="st4" width="252.5" height="577.7"/>
		<polygon class="st7" points="1150.5,586.5 897.9,666.4 897.9,88.7 1150.5,8.7 		"/>
		<rect x="647.2" y="88.7" class="st4" width="252.5" height="577.7"/>
		<polygon class="st7" points="649,666.4 396.5,746.3 396.5,168.6 649,88.7 		"/>
		<rect x="322" y="388.4" class="st8" width="56.3" height="316.1"/>
		<polygon class="st9" points="707.5,319.4 670.8,319.4 670.8,621 790.9,621 		"/>
		<polygon class="st9" points="720.3,319.4 803.7,621 876.1,621 876.1,319.4 		"/>
		<polygon class="st9" points="1114.6,61 928.8,117.9 928.8,145 928.8,205.2 928.8,210.4 		"/>
		<polygon class="st10" points="928.8,227.7 928.8,232 928.8,296.5 1125,236 1125,145 1125,69.9 		"/>
		<polygon class="st9" points="1125,466.4 1125,447.7 1125,296.3 1125,269.6 1125,249.3 928.8,309.9 928.8,317.4 		"/>
		<polygon class="st9" points="431,610.1 431,697.3 431,697.7 474.6,683.5 474.7,683.1 501.9,674.3 501.9,674.7 627.2,634 
			627.2,633.7 627.2,554.4 627.2,527.7 627.2,413.9 		"/>
		<polygon class="st9" points="626.8,397.1 627.2,397.5 627.2,376.3 627.2,349.5 627.2,325.1 431,385.6 431,463.3 431,490.1 
			431,592.9 		"/>
		<polygon class="st10" points="1046.9,421.7 928.8,332.1 928.8,383.4 928.8,410.1 928.8,458.2 		"/>
		<polygon class="st10" points="309.3,586.1 309.3,388.4 173.1,388.4 173.1,628.1 		"/>
		<polygon class="st8" points="173.1,641.4 173.1,704.5 309.3,704.5 309.3,599.4 		"/>
		<rect x="1121.4" y="117.7" class="st4" width="9.1" height="10.9"/>
		<path class="st4" d="M1130.5,215.8h-9.1V194h9.1V215.8z M1130.5,172.2h-9.1v-21.8h9.1V172.2z"/>
		<polygon class="st4" points="1120.9,261.1 1114.8,254.4 1121.4,248.4 1121.4,239.5 1130.5,239.5 1130.5,252.4 		"/>
		<path class="st4" d="M879.8,393.9H858v-9.1h21.8L879.8,393.9z M838,393.9h-21.8v-9.1H838L838,393.9z M794.4,393.9h-21.8v-9.1h21.8
			V393.9z M903,391.9l-2.1-8.8l21.1-5l2.1,8.8L903,391.9z M945.2,381.8l-2.1-8.8l21.1-5l2.1,8.8L945.2,381.8z M987.4,371.7l-2.1-8.8
			l13.1-3.1l4.3-4l6.1,6.7l-6.1,5.5L987.4,371.7z M1024.9,347.9l-6.1-6.7l16-14.6l6.1,6.7L1024.9,347.9z M1056.9,318.6l-6.1-6.7
			l16-14.6l6.1,6.7L1056.9,318.6z M1088.9,289.4l-6.1-6.7l16-14.6l6.1,6.7L1088.9,289.4z"/>
		<polygon class="st4" points="738.9,401.1 730.8,396.9 737.1,384.8 750.8,384.8 750.8,393.9 742.6,393.9 		"/>
		<path class="st4" d="M704.7,464.7l-8-4.2l8.4-16.1l8,4.2L704.7,464.7z M721.5,432.4l-8-4.2l8.4-16.1l8,4.2L721.5,432.4z"/>
		<polygon class="st4" points="687.3,498 678,480.9 686,476.6 687.1,478.7 688.2,476.6 696.3,480.8 		"/>
		
			<rect x="663.6" y="443.1" transform="matrix(0.8805 -0.4741 0.4741 0.8805 -134.8666 370.8832)" class="st4" width="9.1" height="19.6"/>
		<polygon class="st4" points="650.2,429.2 646.8,422.9 639.8,424.9 637.3,416.1 651.3,412.1 658.2,425 		"/>
		<path class="st4" d="M402.5,493.8h-4.2v-9.1h2.9l16-4.6l2.5,8.7L402.5,493.8z M376.5,493.8h-20v-9.1h20V493.8z M334.7,493.8h-20
			v-9.1h20V493.8z M294.7,493.8h-20v-9.1h20V493.8z M252.9,493.8H233v-9.1h20L252.9,493.8z M439.8,482.2l-2.5-8.7l20-5.7l2.5,8.7
			L439.8,482.2z M479.8,470.8l-2.5-8.7l20-5.7l2.5,8.7L479.8,470.8z M519.8,459.3l-2.5-8.7l20-5.7l2.5,8.7L519.8,459.3z
			 M559.8,447.8l-2.5-8.7l20-5.7l2.5,8.7L559.8,447.8z M599.8,436.3l-2.5-8.7l20-5.7l2.5,8.7L599.8,436.3z"/>
		<polygon class="st4" points="203.9,499.2 194.9,499.2 194.9,482.9 211.2,482.9 211.2,492 203.9,492 		"/>
		<rect x="196.7" y="526.5" class="st4" width="9.1" height="27.2"/>
		<rect x="196.7" y="582.8" class="st4" width="9.1" height="10.9"/>
		<rect x="247.6" y="212.2" class="st8" width="130.8" height="163.5"/>
		<rect x="173.1" y="212.2" class="st10" width="61.8" height="163.5"/>
		<polygon class="st10" points="1059.4,431.2 972.3,458.1 1031.4,584.4 1125,554 1125,553.8 1125,481 		"/>
		<polygon class="st9" points="1019.2,588.4 960,461.9 928.8,471.5 928.8,617.3 928.8,617.8 972.4,603.6 972.5,603.2 999.7,594.4 
			999.7,594.7 		"/>
		<polygon class="st3" points="155.1,751.5 143.1,751.5 143.4,664.2 143.4,164.1 395.6,164.1 646.2,84.7 679.5,84.1 897,84.1 
			1156.5,2 1156.5,136.1 1144.5,136.1 1144.5,18.4 898.9,96.1 679.6,96.1 648.2,96.7 397.5,176.1 155.4,176.1 155.4,664.2 		"/>
		<polygon class="st3" points="402.3,753.8 149.4,753.8 149.4,741.8 401.6,741.8 402.9,741.7 648.1,661.9 899.4,661.9 902.8,661.4 
			1144.5,583.6 1144.5,283.1 1156.5,283.1 1156.5,592.3 905.5,673.2 900.1,673.9 650,673.9 405.5,753.4 		"/>
		<rect x="1144.5" y="234.1" class="st3" width="12" height="22.5"/>
		<rect x="1144.5" y="159" class="st3" width="12" height="60.7"/>
		<path class="st11" d="M668,23.6c-150.3-0.3-244,94.3-244.3,243.2c-0.1,46,24.1,117.9,65.9,204.6c18.9,36.6,41.8,77.3,66.1,118
			c29.7,50.2,62.1,100.3,94.5,146.4l16.2,21.7c5.4-6.8,10.9-13.5,16.3-21.7c32.6-47.3,65.2-96,95.1-146
			c24.5-40.6,46.2-81.1,65.3-117.7c43.5-86.6,68-158.3,68.2-204.3C911.5,122.9,814.3,23.9,668,23.6z M667.2,416.3
			c-89.4-0.2-162.4-73.5-162.1-162.9S578.5,91.1,667.9,91.3S830.2,164.7,830,254.1S756.5,416.5,667.2,416.3L667.2,416.3z"/>
		<path class="st4" d="M792.7,234.3c-0.2,89.4-73.5,162.4-162.9,162.2c-77.4-0.2-142.5-55.1-158.4-128c-1.6-9.3-2.4-18.8-2.4-28.3
			c0.2-89.4,73.5-162.3,162.8-162.2c77.3,0.2,142.3,55,158.4,127.6c0,0,0,0.1,0,0.1C791.9,215.2,792.7,224.7,792.7,234.3z"/>
		<path class="st10" d="M632.3,5.8C482,5.5,388.3,100.1,388,249c-0.1,46,24.1,117.9,65.9,204.6c18.9,36.6,41.8,77.3,66.1,118
			c29.7,50.2,62.1,100.3,94.5,146.4l16.2,21.7c5.4-6.8,10.9-13.5,16.3-21.7c32.6-47.3,65.2-96,95.1-146
			c24.5-40.6,46.2-81.1,65.3-117.7c43.5-86.6,68-158.3,68.2-204.3C875.8,105.2,778.6,6.1,632.3,5.8z M631.5,398.5
			c-89.4-0.2-162.3-73.5-162.2-162.9S542.8,73.3,632.2,73.5S794.5,147,794.3,236.4S720.8,398.7,631.5,398.5z"/>
		<path class="st12" d="M798,476c-16.7,31.7-35.4,65.8-55.9,99.9c-29.9,50-62.5,98.7-95.1,146c-5.4,8.1-10.9,14.9-16.3,21.7
			l-16.2-21.7c-32.4-46.1-64.8-96.3-94.5-146.4c-24.3-40.7-47.2-81.4-66.1-118c-41.8-86.8-66-158.6-65.9-204.6
			c0.1-61.5,16.2-113.7,45.5-153.8c-11.6,30.2-17.8,64.7-17.9,102.7c-0.1,46,24.1,117.9,65.9,204.6c18.9,36.6,41.8,77.3,66.1,118
			c29.7,50.2,62.1,100.3,94.5,146.4l16.2,21.7c5.4-6.8,10.9-13.5,16.3-21.7c32.6-47.3,65.2-96,95.1-146
			C779.6,508.5,789,492.1,798,476z"/>
		<path class="st3" d="M630.5,752.4l-21.7-29.1c-32.4-46.1-65.2-96.9-94.8-146.9c-25.3-42.4-48.3-83.4-66.3-118.3l-0.1-0.2
			c-44.3-91.9-66.7-161.8-66.6-207.7c0.2-75.1,23.7-138.3,67.9-182.5S556.3,0,631.5,0h0.8c73.5,0.2,136.3,24.4,181.5,70
			c22.3,22.7,39.7,49.8,50.9,79.5c11.9,31,17.8,65.2,17.8,101.8c-0.1,46.3-23.9,118-68.9,207.5v0.1c-16.9,32.5-39.7,75.3-65.5,118.1
			c-31.9,53.5-66.1,104-95.3,146.4c-5.5,8.2-11,15.1-16.4,21.8L630.5,752.4z M620.1,715.2l10.7,14.4c3.5-4.4,6.9-9,10.3-14.1
			c29.1-42.3,63.2-92.6,94.9-145.7c25.6-42.4,48.2-85,65-117.3c44-87.5,67.3-157.1,67.4-201.2c0.2-69.4-22.2-128.6-64.6-171.4
			C761.3,36.9,701.9,14.2,632.2,14h-0.8c-71.4,0-131.1,22-172.7,63.6S395.1,178.9,395,250.2c-0.1,43.1,22.5,112.8,65.2,201.5
			c17.9,34.7,40.7,75.3,65.8,117.5C555.4,618.9,587.9,669.3,620.1,715.2L620.1,715.2z M631.8,406.7h-0.4
			c-93.5-0.1-169.2-76-169.2-169.5c0-45.1,18.1-88.3,50.1-120c31.6-31.8,74.6-49.6,119.5-49.5h0.4c93.5,0.1,169.2,76,169.1,169.5
			c0,45.1-18.1,88.3-50,120C719.6,388.9,676.6,406.8,631.8,406.7L631.8,406.7z M631.8,81.7c-85.9,0.9-154.8,71.2-153.9,157.1
			c0.9,84.5,69.1,152.9,153.6,153.9h0.3c85.9-0.9,154.8-71.2,153.9-157.1c-0.9-84.5-69.1-152.9-153.6-153.9H631.8z"/>
		<path class="st3" d="M954.2,795.8H357.7v-13h596.5c3.6,0,6.5,2.9,6.5,6.5S957.8,795.8,954.2,795.8z"/>
		<path class="st3" d="M331,795.8h-36.5c-3.6,0-6.5-2.9-6.5-6.5s2.9-6.5,6.5-6.5H331c3.6,0,6.5,2.9,6.5,6.5S334.6,795.8,331,795.8z"
			/>
		<path class="st3" d="M270.9,795.8h-11.6c-3.6,0-6.5-2.9-6.5-6.5s2.9-6.5,6.5-6.5h11.6c3.6,0,6.5,2.9,6.5,6.5
			S274.4,795.8,270.9,795.8z"/>
		<path class="st3" d="M1163.3,795.8H980v-13h183.3c3.6,0,6.5,2.9,6.5,6.5S1166.9,795.8,1163.3,795.8z"/>
		<path class="st3" d="M226,795.8H42.7v-13H226c3.6,0,6.5,2.9,6.5,6.5S229.6,795.8,226,795.8z"/>
		<path class="st4" d="M767.1,87.7c34.9,32.4,59.1,74.3,68.7,121c3.4,17.2,5.1,34.7,5.1,52.2c0,7.7,12,7.7,12,0
			c-0.1-56.3-17.1-110.7-52.3-154.9c-7.7-9.6-16-18.5-25-26.8C769.9,74,761.4,82.5,767.1,87.7L767.1,87.7z"/>
		<path class="st4" d="M704.2,45.8L705,46c-1.9-0.8,1,0.5,1.4,0.7c2.9,1.3,5.8,2.8,8.7,4.2c9.8,5.2,19.3,11,28.4,17.5
			c6.3,4.5,12.3-5.9,6.1-10.4c-13.1-9.3-27.1-18-42-23.9C700.3,31.4,697.2,43,704.2,45.8L704.2,45.8z"/>
	</g>
</g>
</svg>
